<svg width="96" height="96" viewBox="0 0 96 96" fill="none" xmlns="http://www.w3.org/2000/svg">
<rect width="96" height="96" rx="48" fill="white"/>
<path d="M42.1992 57.2852C42.1992 54.0039 42.5977 51.3906 43.3945 49.4453C44.1914 47.5 45.6445 45.5898 47.7539 43.7148C49.8867 41.8164 51.3047 40.2812 52.0078 39.1094C52.7109 37.9141 53.0625 36.6602 53.0625 35.3477C53.0625 31.3867 51.2344 29.4062 47.5781 29.4062C45.8438 29.4062 44.4492 29.9453 43.3945 31.0234C42.3633 32.0781 41.8242 33.543 41.7773 35.418H31.582C31.6289 30.9414 33.0703 27.4375 35.9062 24.9062C38.7656 22.375 42.6562 21.1094 47.5781 21.1094C52.5469 21.1094 56.4023 22.3164 59.1445 24.7305C61.8867 27.1211 63.2578 30.5078 63.2578 34.8906C63.2578 36.8828 62.8125 38.7695 61.9219 40.5508C61.0312 42.3086 59.4727 44.2656 57.2461 46.4219L54.3984 49.1289C52.6172 50.8398 51.5977 52.8438 51.3398 55.1406L51.1992 57.2852H42.1992ZM41.1797 68.0781C41.1797 66.5078 41.707 65.2188 42.7617 64.2109C43.8398 63.1797 45.2109 62.6641 46.875 62.6641C48.5391 62.6641 49.8984 63.1797 50.9531 64.2109C52.0312 65.2188 52.5703 66.5078 52.5703 68.0781C52.5703 69.625 52.043 70.9023 50.9883 71.9102C49.957 72.918 48.5859 73.4219 46.875 73.4219C45.1641 73.4219 43.7812 72.918 42.7266 71.9102C41.6953 70.9023 41.1797 69.625 41.1797 68.0781Z" fill="black"/>
</svg>
